<?xml version="1.0" standalone="no"?>
<!DOCTYPE svg PUBLIC "-//W3C//DTD SVG 20010904//EN"
 "http://www.w3.org/TR/2001/REC-SVG-20010904/DTD/svg10.dtd">
<svg version="1.0" xmlns="http://www.w3.org/2000/svg"
 width="2048.000000pt" height="2048.000000pt" viewBox="0 0 2048.000000 2048.000000"
 preserveAspectRatio="xMidYMid meet">

<g transform="translate(0.000000,2048.000000) scale(0.100000,-0.100000)"
fill="#000000" stroke="none">
<path d="M8530 15065 c-176 -21 -263 -42 -395 -95 -11 -5 -29 -11 -39 -15 -53
-17 -215 -125 -282 -188 -81 -76 -173 -200 -211 -285 -53 -119 -67 -196 -68
-362 0 -99 5 -179 14 -220 18 -82 61 -187 99 -243 64 -93 242 -237 362 -294
97 -45 266 -106 350 -124 25 -6 61 -14 80 -19 49 -11 108 -24 225 -49 55 -11
136 -30 180 -41 44 -12 96 -25 115 -30 116 -30 267 -97 360 -160 121 -83 168
-162 190 -319 19 -133 -13 -251 -96 -361 -155 -205 -390 -314 -679 -312 -375
1 -718 174 -905 457 -29 44 -54 82 -56 84 -2 3 -70 -42 -331 -221 -24 -16 -43
-34 -43 -41 0 -19 101 -159 166 -230 159 -173 363 -292 639 -372 78 -23 115
-31 258 -56 96 -16 444 -16 532 1 428 82 710 270 858 572 74 150 92 240 90
448 -1 225 -24 327 -102 463 -76 132 -271 290 -442 356 -181 71 -172 68 -404
121 -43 10 -100 21 -205 41 -138 25 -373 89 -456 123 -204 83 -308 175 -347
306 -48 164 -20 304 85 427 137 161 363 253 622 253 327 0 545 -116 719 -382
28 -43 53 -78 56 -78 3 0 26 12 51 26 25 15 59 34 75 44 116 67 255 152 255
156 0 22 -95 167 -152 234 -62 71 -164 156 -252 208 -101 60 -205 101 -361
143 -58 15 -161 30 -280 39 -137 11 -135 11 -275 -5z"/>
<path d="M11570 15065 c-69 -7 -136 -15 -150 -18 -14 -3 -52 -11 -85 -17 -159
-32 -359 -101 -507 -176 -128 -65 -348 -224 -348 -252 0 -6 6 -17 13 -24 17
-18 72 -83 132 -153 28 -33 61 -72 75 -88 l26 -29 52 41 c187 148 407 251 645
303 139 30 476 33 607 5 172 -37 355 -123 449 -211 154 -146 216 -332 209
-631 l-3 -140 -400 -6 c-608 -10 -875 -42 -1163 -138 -218 -73 -374 -161 -512
-288 -153 -142 -223 -275 -270 -511 -25 -130 -9 -370 35 -511 50 -160 198
-354 350 -458 45 -31 173 -97 228 -118 44 -16 48 -21 44 -44 -2 -14 -52 -262
-110 -551 -90 -442 -153 -788 -206 -1130 -6 -36 -20 -126 -32 -200 -42 -274
-61 -392 -110 -690 -27 -168 -54 -333 -59 -367 -6 -35 -14 -91 -20 -125 -35
-223 -79 -571 -131 -1053 -6 -49 -14 -128 -20 -175 -27 -242 -39 -425 -39
-612 0 -245 10 -288 85 -357 122 -112 302 -78 379 72 24 47 31 78 42 194 31
311 37 363 56 483 48 296 189 770 354 1187 159 403 376 836 654 1308 124 211
429 643 568 805 92 106 204 220 213 214 12 -7 -22 -116 -241 -774 -419 -1260
-525 -1610 -775 -2545 -217 -811 -410 -1708 -534 -2475 -11 -69 -29 -181 -40
-250 -49 -300 -126 -883 -151 -1140 -6 -63 -15 -149 -20 -190 -6 -41 -10 -99
-10 -128 0 -29 -5 -85 -12 -123 -10 -62 -9 -72 5 -87 13 -12 20 -13 29 -4 15
15 38 81 38 111 0 14 4 38 9 55 6 17 15 58 21 91 6 33 16 78 20 100 5 22 14
63 20 90 87 415 322 1387 434 1795 8 30 21 80 30 110 136 503 521 1813 717
2440 85 271 232 720 484 1480 302 909 396 1255 411 1511 13 214 -52 353 -182
389 -96 27 -185 -6 -324 -122 -313 -260 -608 -611 -955 -1135 -195 -295 -273
-424 -443 -728 -50 -89 -62 -104 -62 -81 0 16 32 232 71 480 126 807 148 933
280 1611 86 443 87 447 98 458 6 6 62 14 124 18 138 9 210 21 313 49 270 75
498 247 659 498 22 34 45 62 51 62 8 0 14 -44 18 -137 5 -122 11 -180 32 -350
l5 -43 201 0 201 0 -7 83 c-3 45 -11 118 -16 162 -22 189 -40 831 -40 1466 0
524 -3 676 -15 760 -39 275 -122 459 -279 615 -159 158 -379 264 -661 318 -55
11 -329 36 -380 35 -27 -1 -106 -7 -175 -14z m1120 -1903 c0 -255 -34 -474
-97 -622 -29 -66 -79 -160 -92 -170 -3 -3 -20 -23 -36 -45 -89 -119 -253 -237
-417 -299 -119 -44 -275 -76 -377 -76 l-54 0 6 53 c4 28 11 81 17 117 32 200
42 340 44 575 1 274 -6 332 -53 399 -37 55 -72 78 -128 83 -38 4 -60 0 -91
-16 -101 -52 -140 -159 -213 -591 -47 -274 -57 -327 -84 -447 l-17 -73 -41 22
c-108 54 -223 192 -267 318 -27 75 -32 243 -11 326 43 166 175 315 361 409 75
38 278 107 365 124 33 7 76 16 95 21 33 8 139 21 315 39 44 5 236 9 428 10
l347 1 0 -158z"/>
<path d="M8590 11454 c-8 -2 -60 -8 -115 -13 -365 -35 -666 -198 -834 -451
-116 -173 -144 -268 -145 -490 -1 -171 10 -243 55 -352 36 -88 72 -139 155
-219 95 -90 226 -175 339 -219 152 -59 207 -76 405 -121 25 -6 63 -15 85 -20
22 -5 74 -15 115 -24 41 -8 91 -19 110 -24 19 -5 69 -19 110 -29 286 -76 473
-183 548 -315 50 -88 69 -218 48 -329 -19 -96 -37 -137 -94 -212 -113 -147
-269 -244 -468 -291 -86 -21 -301 -23 -399 -5 -308 57 -563 216 -715 445 -29
44 -54 82 -56 83 -5 7 -367 -245 -372 -259 -6 -16 87 -147 163 -230 208 -228
489 -363 895 -430 102 -16 458 -17 535 0 202 44 271 64 376 114 261 124 445
320 527 562 41 123 47 165 46 345 -3 293 -52 434 -207 592 -188 192 -383 276
-875 374 -566 112 -804 228 -869 424 -53 157 -28 316 70 435 137 167 369 265
632 265 175 0 327 -38 452 -111 80 -48 200 -169 263 -267 43 -66 57 -81 72
-76 11 3 58 29 106 58 48 29 119 71 157 94 113 66 110 62 90 103 -70 136 -197
278 -330 368 -133 90 -224 130 -420 182 -58 15 -162 29 -289 39 -131 10 -140
10 -166 4z"/>
</g>
</svg>
